<svg width="37" height="43" viewBox="0 0 37 43" fill="none" xmlns="http://www.w3.org/2000/svg">
<path d="M6.9957 28.383V40.7858L22.8261 41V34.7986H25.7811C30.0025 34.6275 30.9172 31.3059 30.8468 29.6664V26.0311H33.5908C35.7859 26.2022 35.0683 23.6789 34.435 22.3958L30.8468 16.6221C30.8468 6.14388 23.0372 1.22513 16.9161 1.01129C10.795 0.797445 3.19641 3.57738 1.29677 13.2002C-0.22295 20.8985 4.46284 26.5297 6.9957 28.383Z" stroke="#343952" stroke-width="2"/>
<path d="M12.5179 18.7758V22.1338L13.1439 22.5288V23.9116L12.3093 24.7017H11.6833L10.8486 23.9116V21.5412H7.71876L3.96289 17.9856L4.79753 17.1955L8.34474 20.5535H10.8486V17.9856L13.3526 15.6153L12.1006 14.4301V5.93625L11.4746 5.34365V4.75106L12.3093 3.96094H13.1439L13.9785 4.75106V5.14612L13.5612 5.54118V7.12143H17.5257V12.6523H16.2738L15.6478 12.0597V11.072L16.0651 10.677V8.89921H13.9785V13.4424L18.7777 17.9856L17.1084 19.5659L14.3959 16.998L12.5179 18.7758Z" fill="#343952" stroke="#343952"/>
<path d="M7.25279 13.2539H2.48242V11.8397H4.97131V8.80942L5.80094 8.00134H6.63057L7.25279 8.6074V10.0215H6.63057V12.0417H8.70464V15.8801H9.32687V16.6882H8.70464V17.2943H7.25279V13.2539Z" fill="#343952"/>
<path d="M20.3195 3.96094H18.8676V7.79932L21.5639 10.6276H22.8083L23.2232 10.2236V9.01144L21.1491 6.99124V4.76902L20.3195 3.96094Z" fill="#343952"/>
<path d="M7.25279 13.2539H2.48242V11.8397H4.97131V8.80942L5.80094 8.00134H6.63057L7.25279 8.6074V10.0215H6.63057V12.0417H8.70464V15.8801H9.32687V16.6882H8.70464V17.2943H7.25279V13.2539Z" stroke="#343952"/>
<path d="M20.3195 3.96094H18.8676V7.79932L21.5639 10.6276H22.8083L23.2232 10.2236V9.01144L21.1491 6.99124V4.76902L20.3195 3.96094Z" stroke="#343952"/>
</svg>
