<svg width="259" height="120" viewBox="0 0 259 120" fill="none" xmlns="http://www.w3.org/2000/svg">
<g filter="url(#filter0_d_730_3)">
<rect x="37" y="33" width="185" height="46" rx="13" fill="white"/>
</g>
<path d="M88.25 55.75C88.25 57.23 87.72 58.475 86.66 59.485C85.6 60.495 84.27 61 82.67 61H78.545V50.5H82.67C84.27 50.5 85.6 51.005 86.66 52.015C87.72 53.025 88.25 54.27 88.25 55.75ZM82.7 52.435H80.675V59.065H82.7C83.66 59.065 84.46 58.75 85.1 58.12C85.74 57.48 86.06 56.69 86.06 55.75C86.06 54.8 85.74 54.01 85.1 53.38C84.47 52.75 83.67 52.435 82.7 52.435ZM97.0531 59.77C96.6931 60.26 96.2231 60.64 95.6431 60.91C95.0731 61.17 94.4431 61.3 93.7531 61.3C92.4931 61.3 91.4781 60.92 90.7081 60.16C89.9381 59.39 89.5531 58.41 89.5531 57.22C89.5531 56.02 89.9081 55.04 90.6181 54.28C91.3381 53.52 92.2781 53.14 93.4381 53.14C94.4681 53.14 95.3031 53.455 95.9431 54.085C96.5931 54.715 96.9181 55.535 96.9181 56.545C96.9181 56.725 96.9081 56.91 96.8881 57.1C96.8681 57.28 96.8381 57.45 96.7981 57.61H91.5031C91.5831 58.26 91.8081 58.755 92.1781 59.095C92.5581 59.425 93.0781 59.59 93.7381 59.59C94.1381 59.59 94.5081 59.51 94.8481 59.35C95.1981 59.19 95.4781 58.97 95.6881 58.69L97.0531 59.77ZM93.3931 54.7C92.9031 54.7 92.4981 54.835 92.1781 55.105C91.8681 55.365 91.6581 55.74 91.5481 56.23H95.0431C95.0231 55.79 94.8631 55.425 94.5631 55.135C94.2631 54.845 93.8731 54.7 93.3931 54.7ZM96.2881 49.75L94.4881 52.24H92.6581L94.2181 49.75H96.2881ZM100.161 57.22C100.161 57.89 100.366 58.44 100.776 58.87C101.186 59.29 101.711 59.5 102.351 59.5C102.711 59.5 103.036 59.425 103.326 59.275C103.626 59.125 103.871 58.91 104.061 58.63L105.546 59.77C105.176 60.26 104.716 60.64 104.166 60.91C103.616 61.17 103.011 61.3 102.351 61.3C101.121 61.3 100.116 60.915 99.3361 60.145C98.5661 59.375 98.1811 58.4 98.1811 57.22C98.1811 56.04 98.5661 55.065 99.3361 54.295C100.116 53.525 101.121 53.14 102.351 53.14C103.011 53.14 103.616 53.275 104.166 53.545C104.716 53.805 105.176 54.18 105.546 54.67L104.061 55.81C103.871 55.53 103.626 55.315 103.326 55.165C103.026 55.015 102.691 54.94 102.321 54.94C101.701 54.94 101.186 55.155 100.776 55.585C100.366 56.015 100.161 56.56 100.161 57.22ZM106.135 57.22C106.135 56.05 106.525 55.08 107.305 54.31C108.085 53.53 109.075 53.14 110.275 53.14C111.475 53.14 112.465 53.53 113.245 54.31C114.025 55.08 114.415 56.05 114.415 57.22C114.415 58.39 114.025 59.365 113.245 60.145C112.465 60.915 111.475 61.3 110.275 61.3C109.075 61.3 108.085 60.915 107.305 60.145C106.525 59.365 106.135 58.39 106.135 57.22ZM108.115 57.22C108.115 57.88 108.32 58.425 108.73 58.855C109.15 59.285 109.675 59.5 110.305 59.5C110.915 59.5 111.42 59.285 111.82 58.855C112.23 58.415 112.435 57.87 112.435 57.22C112.435 56.56 112.23 56.015 111.82 55.585C111.42 55.155 110.915 54.94 110.305 54.94C109.675 54.94 109.15 55.155 108.73 55.585C108.32 56.015 108.115 56.56 108.115 57.22ZM119.528 59.5C120.038 59.5 120.433 59.345 120.713 59.035C120.993 58.725 121.133 58.29 121.133 57.73V53.44H123.053V57.64C123.053 58.78 122.738 59.675 122.108 60.325C121.478 60.975 120.613 61.3 119.513 61.3C118.413 61.3 117.548 60.975 116.918 60.325C116.298 59.675 115.988 58.78 115.988 57.64V53.44H117.908V57.73C117.908 58.29 118.048 58.725 118.328 59.035C118.618 59.345 119.018 59.5 119.528 59.5ZM126.944 61L124.199 53.44H126.239L128.204 58.84L130.154 53.44H132.209L129.449 61H126.944ZM135.314 61H133.409V53.44H135.314V54.19C135.624 53.87 135.939 53.64 136.259 53.5C136.589 53.36 136.939 53.29 137.309 53.29C137.419 53.29 137.529 53.3 137.639 53.32C137.759 53.34 137.869 53.365 137.969 53.395V55.27C137.819 55.23 137.679 55.205 137.549 55.195C137.419 55.175 137.279 55.165 137.129 55.165C136.739 55.165 136.384 55.255 136.064 55.435C135.744 55.605 135.494 55.845 135.314 56.155V61ZM141.692 50.875C141.692 51.215 141.572 51.51 141.332 51.76C141.092 52 140.802 52.12 140.462 52.12C140.122 52.12 139.827 52 139.577 51.76C139.337 51.51 139.217 51.215 139.217 50.875C139.217 50.535 139.337 50.245 139.577 50.005C139.827 49.755 140.122 49.63 140.462 49.63C140.802 49.63 141.092 49.755 141.332 50.005C141.572 50.245 141.692 50.535 141.692 50.875ZM141.407 61H139.502V53.44H141.407V61ZM145.597 61H143.692V53.44H145.597V54.19C145.907 53.87 146.222 53.64 146.542 53.5C146.872 53.36 147.222 53.29 147.592 53.29C147.702 53.29 147.812 53.3 147.922 53.32C148.042 53.34 148.152 53.365 148.252 53.395V55.27C148.102 55.23 147.962 55.205 147.832 55.195C147.702 55.175 147.562 55.165 147.412 55.165C147.022 55.165 146.667 55.255 146.347 55.435C146.027 55.605 145.777 55.845 145.597 56.155V61Z" fill="#343952"/>
<path d="M207.707 56.7071C208.098 56.3166 208.098 55.6834 207.707 55.2929L201.343 48.9289C200.953 48.5384 200.319 48.5384 199.929 48.9289C199.538 49.3195 199.538 49.9526 199.929 50.3431L205.586 56L199.929 61.6569C199.538 62.0474 199.538 62.6805 199.929 63.0711C200.319 63.4616 200.953 63.4616 201.343 63.0711L207.707 56.7071ZM190 57L207 57V55L190 55V57Z" fill="black"/>
<defs>
<filter id="filter0_d_730_3" x="0.400002" y="0.400002" width="258.2" height="119.2" filterUnits="userSpaceOnUse" color-interpolation-filters="sRGB">
<feFlood flood-opacity="0" result="BackgroundImageFix"/>
<feColorMatrix in="SourceAlpha" type="matrix" values="0 0 0 0 0 0 0 0 0 0 0 0 0 0 0 0 0 0 127 0" result="hardAlpha"/>
<feOffset dy="4"/>
<feGaussianBlur stdDeviation="18.3"/>
<feComposite in2="hardAlpha" operator="out"/>
<feColorMatrix type="matrix" values="0 0 0 0 0.585692 0 0 0 0 0.585692 0 0 0 0 0.585692 0 0 0 0.25 0"/>
<feBlend mode="normal" in2="BackgroundImageFix" result="effect1_dropShadow_730_3"/>
<feBlend mode="normal" in="SourceGraphic" in2="effect1_dropShadow_730_3" result="shape"/>
</filter>
</defs>
</svg>
