<svg width="45" height="39" viewBox="0 0 45 39" fill="none" xmlns="http://www.w3.org/2000/svg">
<path d="M23.6306 35.8782V33.1482C23.4206 32.7982 21.9562 31.8779 19.4305 31.875C16.7005 31.8719 15.7205 32.6582 15.2305 33.1482V35.8782H23.6306Z" stroke="black" stroke-width="2"/>
<path d="M33.5017 35.8782V33.1482C33.2917 32.7982 31.8272 31.8779 29.3016 31.875C26.5716 31.8719 25.5916 32.6582 25.1016 33.1482V35.8782H33.5017Z" stroke="black" stroke-width="2"/>
<path d="M43.1599 35.8782V33.1482C42.9499 32.7982 41.4855 31.8779 38.9598 31.875C36.2298 31.8719 35.2498 32.6582 34.7598 33.1482V35.8782H43.1599Z" stroke="black" stroke-width="2"/>
<path d="M12.0781 4.57005V1H38.1185V19.6903H20.0582" stroke="black" stroke-width="2"/>
<path d="M8.9301 37.7544H6.41006V17.5939L4.52004 24.104L3.68002 24.9443L2.42001 24.524L2 23.054L4.52004 13.6038L7.46008 11.7138H13.5502L16.2802 14.4439V16.1239L17.9602 14.4439L19.6402 13.6038L26.1503 7.09375L26.7803 7.72376L20.4803 14.0238V15.4939L16.2802 20.9539L13.5502 18.2239V37.7544H10.6101V24.9443C9.93811 24.2723 9.2101 24.6643 8.9301 24.9443V37.7544Z" stroke="black" stroke-width="2"/>
<circle cx="9.98106" cy="7.93223" r="1.94004" stroke="black" stroke-width="2"/>
<circle cx="19.6392" cy="28.5122" r="1.52003" stroke="black" stroke-width="2"/>
<circle cx="29.3013" cy="28.5122" r="1.52003" stroke="black" stroke-width="2"/>
<circle cx="38.9595" cy="28.5122" r="1.52003" stroke="black" stroke-width="2"/>
</svg>
