<svg width="205" height="80" viewBox="0 0 205 80" fill="none" xmlns="http://www.w3.org/2000/svg">
<path d="M0 0.000165383C0 0.000165383 9.72332 -0.000206729 33.2213 0.000165383H0Z" fill="white"/>
<path d="M0 0.000165383C0 0.000165383 9.72332 -0.000206729 33.2213 0.000165383H75.7026L121.258 0.000164032L158.814 0.000165383C124.783 0.000165383 174.209 80 103.715 80C33.2213 80 86.6694 0.00101178 33.2213 0.000165383H0Z" fill="white"/>
<path d="M90.9957 47.383V59.7858L106.826 60V53.7986H109.781C114.003 53.6275 114.917 50.3059 114.847 48.6664V45.0311H117.591C119.786 45.2022 119.068 42.6789 118.435 41.3958L114.847 35.6221C114.847 25.1439 107.037 20.2251 100.916 20.0113C94.795 19.7974 87.1964 22.5774 85.2968 32.2002C83.7771 39.8985 88.4628 45.5297 90.9957 47.383Z" stroke="#343952" stroke-width="2"/>
<path d="M96.5179 37.7758V41.1338L97.1439 41.5288V42.9116L96.3093 43.7017H95.6833L94.8486 42.9116V40.5412H91.7188L87.9629 36.9856L88.7975 36.1955L92.3447 39.5535H94.8486V36.9856L97.3526 34.6153L96.1006 33.4301V24.9362L95.4746 24.3437V23.7511L96.3093 22.9609H97.1439L97.9785 23.7511V24.1461L97.5612 24.5412V26.1214H101.526V31.6523H100.274L99.6478 31.0597V30.072L100.065 29.677V27.8992H97.9785V32.4424L102.778 36.9856L101.108 38.5659L98.3959 35.998L96.5179 37.7758Z" fill="#343952" stroke="#343952"/>
<path d="M91.2528 32.2539H86.4824V30.8397H88.9713V27.8094L89.8009 27.0013H90.6306L91.2528 27.6074V29.0215H90.6306V31.0417H92.7046V34.8801H93.3269V35.6882H92.7046V36.2943H91.2528V32.2539Z" fill="#343952"/>
<path d="M104.319 22.9609H102.868V26.7993L105.564 29.6276H106.808L107.223 29.2236V28.0114L105.149 25.9912V23.769L104.319 22.9609Z" fill="#343952"/>
<path d="M91.2528 32.2539H86.4824V30.8397H88.9713V27.8094L89.8009 27.0013H90.6306L91.2528 27.6074V29.0215H90.6306V31.0417H92.7046V34.8801H93.3269V35.6882H92.7046V36.2943H91.2528V32.2539Z" stroke="#343952"/>
<path d="M104.319 22.9609H102.868V26.7993L105.564 29.6276H106.808L107.223 29.2236V28.0114L105.149 25.9912V23.769L104.319 22.9609Z" stroke="#343952"/>
</svg>
