<svg width="201" height="80" viewBox="0 0 201 80" fill="none" xmlns="http://www.w3.org/2000/svg">
<path d="M0 0.000165383C0 0.000165383 9.5336 -0.000206729 32.5731 0.000165383H0Z" fill="white"/>
<path d="M0 0.000165383C0 0.000165383 9.5336 -0.000206729 32.5731 0.000165383H74.2255L118.892 0.000164032L155.715 0.000165383C122.348 0.000165383 170.81 80 101.692 80C32.5731 80 84.9783 0.00101178 32.5731 0.000165383H0Z" fill="white"/>
<path d="M104.817 27.8991H77.6693C75.3086 27.8991 74.9152 29.8663 75.0135 30.8499V51.8007C75.0135 53.6892 76.784 53.9647 77.6693 53.8663H79.1447C79.3414 51.9974 80.7971 48.2007 85.0463 47.9647C89.2955 47.7286 90.948 51.9974 91.243 54.1614H110.128C110.128 52.1942 111.25 48.2007 115.735 47.9647C120.22 47.7286 121.735 51.8007 121.932 53.8663C124.056 53.6302 124.391 51.9974 124.292 51.2106V43.8335C122.404 42.6532 120.358 40.3909 119.571 39.4073C117.918 33.9778 115.735 32.0302 114.85 31.7351H112.194V27.8991C111.8 27.5056 110.777 26.7188 109.833 26.7188C108.889 26.7188 107.669 27.5056 107.177 27.8991C105.997 28.6073 105.112 28.1942 104.817 27.8991Z" stroke="black" stroke-width="2"/>
<circle cx="85.3419" cy="54.1642" r="2.83607" stroke="black" stroke-width="2"/>
<circle cx="116.029" cy="54.1642" r="2.83607" stroke="black" stroke-width="2"/>
<path d="M90.9479 35.8673L88.2921 33.8017L86.2266 37.0476L89.1774 38.8181L86.2266 40.8837L88.5872 44.1296L90.9479 42.3591V46.1952H95.079V42.3591L98.3249 44.1296L99.8003 40.8837L96.5544 39.1132L99.8003 36.7526L97.4397 33.8017L95.079 35.8673V32.0312H90.9479V35.8673Z" stroke="black" stroke-width="2"/>
<path d="M113.965 34.1016H109.834V40.2983H117.211C116.975 37.9376 114.949 35.1835 113.965 34.1016Z" stroke="black" stroke-width="2"/>
<path d="M107.177 25.8372L104.816 23.4766" stroke="black" stroke-width="2"/>
<path d="M109.834 24.9508V22M112.785 25.541L114.555 23.4754" stroke="black" stroke-width="2"/>
</svg>
