<svg width="201" height="80" viewBox="0 0 201 80" fill="none" xmlns="http://www.w3.org/2000/svg">
<path d="M0 0.000165383C0 0.000165383 9.5336 -0.000206729 32.5731 0.000165383H0Z" fill="#FCF7FF"/>
<path d="M0 0.000165383C0 0.000165383 9.5336 -0.000206729 32.5731 0.000165383H74.2255L118.892 0.000164032L155.715 0.000165383C122.348 0.000165383 170.81 80 101.692 80C32.5731 80 84.9783 0.00101178 32.5731 0.000165383H0Z" fill="#FCF7FF"/>
<path d="M111.906 42.6579C113.879 39.6667 115.037 36.1179 115.037 32.303C115.037 21.6439 106.077 13 95.0251 13C83.96 13 75 21.6439 75 32.303C75 42.962 83.96 51.6059 95.012 51.6059C99.0249 51.6059 102.762 50.4652 105.893 48.5134L106.801 47.905L119.136 59.7872C120.255 60.8651 121.998 60.9498 123.216 59.9853C124.69 58.8187 124.797 56.621 123.444 55.3167L111.248 43.5577L111.906 42.6579ZM106.235 21.5171C109.222 24.3942 110.866 28.2218 110.866 32.2903C110.866 36.3587 109.222 40.1864 106.235 43.0634C103.248 45.9405 99.2749 47.5248 95.0515 47.5248C90.828 47.5248 86.8546 45.9405 83.8679 43.0634C80.8812 40.1864 79.2366 36.3587 79.2366 32.2903C79.2366 28.2218 80.8812 24.3942 83.8679 21.5171C86.8546 18.6401 90.828 17.0558 95.0515 17.0558C99.2749 17.0558 103.248 18.6401 106.235 21.5171Z" fill="#343952"/>
<path d="M111.906 42.6579C113.879 39.6667 115.037 36.1179 115.037 32.303C115.037 21.6439 106.077 13 95.0251 13C83.96 13 75 21.6439 75 32.303C75 42.962 83.96 51.6059 95.012 51.6059C99.0249 51.6059 102.762 50.4652 105.893 48.5134L106.801 47.905L119.136 59.7872C120.255 60.8651 121.998 60.9498 123.216 59.9853C124.69 58.8187 124.797 56.621 123.444 55.3167L111.248 43.5577L111.906 42.6579ZM106.235 21.5171C109.222 24.3942 110.866 28.2218 110.866 32.2903C110.866 36.3587 109.222 40.1864 106.235 43.0634C103.248 45.9405 99.2749 47.5248 95.0515 47.5248C90.828 47.5248 86.8546 45.9405 83.8679 43.0634C80.8812 40.1864 79.2366 36.3587 79.2366 32.2903C79.2366 28.2218 80.8812 24.3942 83.8679 21.5171C86.8546 18.6401 90.828 17.0558 95.0515 17.0558C99.2749 17.0558 103.248 18.6401 106.235 21.5171Z" stroke="black"/>
</svg>
