<svg width="144" height="143" viewBox="0 0 144 143" fill="none" xmlns="http://www.w3.org/2000/svg">
<g filter="url(#filter0_d_709_2)">
<rect x="37" y="27" width="70" height="69" rx="13" fill="#272747"/>
</g>
<path fill-rule="evenodd" clip-rule="evenodd" d="M72.5666 80.5586C72.5666 80.5586 58.8826 68.0391 58.009 59.0134C58.009 59.0134 57.1356 43 72.5666 43C87.9977 43 86.8331 59.0134 86.8331 59.0134C85.9597 67.1656 72.5666 80.5586 72.5666 80.5586ZM72.2567 61.3389C74.9903 61.3389 77.2063 59.1229 77.2063 56.3893C77.2063 53.6557 74.9903 51.4397 72.2567 51.4397C69.5231 51.4397 67.3071 53.6557 67.3071 56.3893C67.3071 59.1229 69.5231 61.3389 72.2567 61.3389Z" fill="white"/>
<defs>
<filter id="filter0_d_709_2" x="0.400002" y="0.400002" width="143.2" height="142.2" filterUnits="userSpaceOnUse" color-interpolation-filters="sRGB">
<feFlood flood-opacity="0" result="BackgroundImageFix"/>
<feColorMatrix in="SourceAlpha" type="matrix" values="0 0 0 0 0 0 0 0 0 0 0 0 0 0 0 0 0 0 127 0" result="hardAlpha"/>
<feOffset dy="10"/>
<feGaussianBlur stdDeviation="18.3"/>
<feComposite in2="hardAlpha" operator="out"/>
<feColorMatrix type="matrix" values="0 0 0 0 0.923654 0 0 0 0 0.923654 0 0 0 0 0.923654 0 0 0 0.25 0"/>
<feBlend mode="normal" in2="BackgroundImageFix" result="effect1_dropShadow_709_2"/>
<feBlend mode="normal" in="SourceGraphic" in2="effect1_dropShadow_709_2" result="shape"/>
</filter>
</defs>
</svg>
