<svg width="144" height="143" viewBox="0 0 144 143" fill="none" xmlns="http://www.w3.org/2000/svg">
<g filter="url(#filter0_d_712_4)">
<rect x="37" y="27" width="70" height="69" rx="13" fill="#272747"/>
</g>
<path d="M86.0487 52.0069H60.0018H59.9217C59.8601 51.9988 59.7978 51.9978 59.736 52.004C59.7196 52.0057 59.7035 52.01 59.6881 52.0161L59.541 52.0746C59.4865 52.0999 59.4359 52.1325 59.3907 52.1713C59.3337 52.2088 59.283 52.2545 59.2404 52.3068L59.2126 52.3337C59.1917 52.3538 59.1774 52.3805 59.1775 52.4096C59.1776 52.4372 59.1728 52.4648 59.1604 52.4894C59.1394 52.531 59.1212 52.574 59.1061 52.618C59.1021 52.6298 59.0971 52.6412 59.0913 52.6522C59.0579 52.7158 59.0301 52.782 59.0084 52.8502C59.0026 52.8683 59 52.8873 59 52.9063V52.9744V70.3893C59 70.6459 59.1055 70.892 59.2934 71.0734C59.4813 71.2549 59.7361 71.3568 60.0018 71.3568H86.0487C86.3144 71.3568 86.5692 71.2549 86.7571 71.0734C86.945 70.892 87.0505 70.6459 87.0505 70.3893V52.9744C87.0505 52.7178 86.945 52.4717 86.7571 52.2902C86.5692 52.1088 86.3144 52.0069 86.0487 52.0069ZM73.1339 60.4661C73.0675 60.5055 72.9845 60.5031 72.9204 60.4602L63.7531 54.3079C63.589 54.1978 63.6669 53.9419 63.8645 53.9419H83.4059C83.6093 53.9419 83.6829 54.2101 83.5079 54.3139L73.1339 60.4661ZM61.2036 69.4218C61.0932 69.4218 61.0036 69.3323 61.0036 69.2218V55.1965C61.0036 55.0367 61.1818 54.9414 61.3147 55.0302L72.4542 62.4752C72.5012 62.5018 72.5496 62.5259 72.5992 62.5474C72.6224 62.5575 72.6476 62.5623 72.6729 62.5623C72.7005 62.5623 72.7276 62.5683 72.7532 62.5785C72.8355 62.6114 72.9217 62.6345 73.0099 62.6472C73.0201 62.6487 73.0305 62.6492 73.0408 62.6488C73.1674 62.6437 73.2918 62.6154 73.4074 62.5655C73.4264 62.5573 73.4467 62.5526 73.4673 62.5526C73.4927 62.5526 73.5176 62.5457 73.5394 62.5327L84.7445 55.8539C84.8778 55.7745 85.0469 55.8705 85.0469 56.0257V69.2218C85.0469 69.3323 84.9574 69.4218 84.8469 69.4218H61.2036Z" fill="white"/>
<defs>
<filter id="filter0_d_712_4" x="0.400002" y="0.400002" width="143.2" height="142.2" filterUnits="userSpaceOnUse" color-interpolation-filters="sRGB">
<feFlood flood-opacity="0" result="BackgroundImageFix"/>
<feColorMatrix in="SourceAlpha" type="matrix" values="0 0 0 0 0 0 0 0 0 0 0 0 0 0 0 0 0 0 127 0" result="hardAlpha"/>
<feOffset dy="10"/>
<feGaussianBlur stdDeviation="18.3"/>
<feComposite in2="hardAlpha" operator="out"/>
<feColorMatrix type="matrix" values="0 0 0 0 0.923654 0 0 0 0 0.923654 0 0 0 0 0.923654 0 0 0 0.25 0"/>
<feBlend mode="normal" in2="BackgroundImageFix" result="effect1_dropShadow_712_4"/>
<feBlend mode="normal" in="SourceGraphic" in2="effect1_dropShadow_712_4" result="shape"/>
</filter>
</defs>
</svg>
