<svg width="50" height="48" viewBox="0 0 50 48" fill="none" xmlns="http://www.w3.org/2000/svg">
<path d="M36.9057 29.6579C38.8793 26.6667 40.0371 23.1179 40.0371 19.303C40.0371 8.64387 31.0771 0 20.0251 0C8.96 0 0 8.64387 0 19.303C0 29.962 8.96 38.6059 20.012 38.6059C24.0249 38.6059 27.7615 37.4652 30.8929 35.5134L31.8008 34.905L44.1356 46.7872C45.2546 47.8651 46.9982 47.9498 48.2163 46.9853C49.6896 45.8187 49.7967 43.621 48.4439 42.3167L36.2479 30.5577L36.9057 29.6579ZM31.235 8.51713C34.2217 11.3942 35.8663 15.2218 35.8663 19.2903C35.8663 23.3587 34.2217 27.1864 31.235 30.0634C28.2483 32.9405 24.2749 34.5248 20.0515 34.5248C15.828 34.5248 11.8546 32.9405 8.8679 30.0634C5.88123 27.1864 4.23659 23.3587 4.23659 19.2903C4.23659 15.2218 5.88123 11.3942 8.8679 8.51713C11.8546 5.64006 15.828 4.05578 20.0515 4.05578C24.2749 4.05578 28.2483 5.64006 31.235 8.51713Z" fill="#343952"/>
<path d="M36.9057 29.6579C38.8793 26.6667 40.0371 23.1179 40.0371 19.303C40.0371 8.64387 31.0771 0 20.0251 0C8.96 0 0 8.64387 0 19.303C0 29.962 8.96 38.6059 20.012 38.6059C24.0249 38.6059 27.7615 37.4652 30.8929 35.5134L31.8008 34.905L44.1356 46.7872C45.2546 47.8651 46.9982 47.9498 48.2163 46.9853C49.6896 45.8187 49.7967 43.621 48.4439 42.3167L36.2479 30.5577L36.9057 29.6579ZM31.235 8.51713C34.2217 11.3942 35.8663 15.2218 35.8663 19.2903C35.8663 23.3587 34.2217 27.1864 31.235 30.0634C28.2483 32.9405 24.2749 34.5248 20.0515 34.5248C15.828 34.5248 11.8546 32.9405 8.8679 30.0634C5.88123 27.1864 4.23659 23.3587 4.23659 19.2903C4.23659 15.2218 5.88123 11.3942 8.8679 8.51713C11.8546 5.64006 15.828 4.05578 20.0515 4.05578C24.2749 4.05578 28.2483 5.64006 31.235 8.51713Z" stroke="black"/>
</svg>
