<svg width="201" height="80" viewBox="0 0 201 80" fill="none" xmlns="http://www.w3.org/2000/svg">
<path d="M0 0.000165383C0 0.000165383 9.5336 -0.000206729 32.5731 0.000165383H0Z" fill="white"/>
<path d="M0 0.000165383C0 0.000165383 9.5336 -0.000206729 32.5731 0.000165383H74.2255L118.892 0.000164032L155.715 0.000165383C122.348 0.000165383 170.81 80 101.692 80C32.5731 80 84.9783 0.00101178 32.5731 0.000165383H0Z" fill="white"/>
<path d="M99.6306 56.8782V54.1482C99.4206 53.7982 97.9562 52.8779 95.4305 52.875C92.7005 52.8719 91.7205 53.6582 91.2305 54.1482V56.8782H99.6306Z" stroke="black" stroke-width="2"/>
<path d="M109.502 56.8782V54.1482C109.292 53.7982 107.827 52.8779 105.302 52.875C102.572 52.8719 101.592 53.6582 101.102 54.1482V56.8782H109.502Z" stroke="black" stroke-width="2"/>
<path d="M119.16 56.8782V54.1482C118.95 53.7982 117.485 52.8779 114.96 52.875C112.23 52.8719 111.25 53.6582 110.76 54.1482V56.8782H119.16Z" stroke="black" stroke-width="2"/>
<path d="M88.0781 25.57V22H114.118V40.6903H96.0582" stroke="black" stroke-width="2"/>
<path d="M84.9301 58.7544H82.4101V38.5939L80.52 45.104L79.68 45.9443L78.42 45.524L78 44.054L80.52 34.6038L83.4601 32.7138H89.5502L92.2802 35.4439V37.1239L93.9602 35.4439L95.6402 34.6038L102.15 28.0938L102.78 28.7238L96.4803 35.0238V36.4939L92.2802 41.9539L89.5502 39.2239V58.7544H86.6101V45.9443C85.9381 45.2723 85.2101 45.6643 84.9301 45.9443V58.7544Z" stroke="black" stroke-width="2"/>
<circle cx="85.9811" cy="28.9322" r="1.94004" stroke="black" stroke-width="2"/>
<circle cx="95.6392" cy="49.5122" r="1.52003" stroke="black" stroke-width="2"/>
<circle cx="105.301" cy="49.5122" r="1.52003" stroke="black" stroke-width="2"/>
<circle cx="114.959" cy="49.5122" r="1.52003" stroke="black" stroke-width="2"/>
</svg>
