<svg width="144" height="143" viewBox="0 0 144 143" fill="none" xmlns="http://www.w3.org/2000/svg">
<g filter="url(#filter0_d_712_3)">
<rect x="37" y="27" width="70" height="69" rx="13" fill="#272747"/>
</g>
<path d="M73.6087 67.1262C73.6087 67.1262 75.6332 65.9671 76.1632 65.6886C76.6917 65.4091 77.2392 65.3386 77.5717 65.5416C78.0752 65.8496 82.3032 68.6622 82.6592 68.9112C83.0152 69.1607 83.1867 69.8732 82.6972 70.5712C82.2097 71.2692 79.9607 74.0293 79.0077 73.9998C78.0532 73.9688 74.0847 73.8818 66.6012 66.3961C59.1193 58.913 59.0308 54.9435 59.0003 53.9889C58.9698 53.0349 61.7297 50.7854 62.4277 50.2974C63.1267 49.8099 63.8402 49.9934 64.0882 50.3364C64.3702 50.7269 67.1502 54.9415 67.4562 55.4245C67.6657 55.7545 67.5887 56.305 67.3092 56.834C67.0312 57.364 65.8722 59.3885 65.8722 59.3885C65.8722 59.3885 66.6892 60.7821 69.4522 63.5446C72.2157 66.3076 73.6087 67.1262 73.6087 67.1262Z" fill="white"/>
<defs>
<filter id="filter0_d_712_3" x="0.400002" y="0.400002" width="143.2" height="142.2" filterUnits="userSpaceOnUse" color-interpolation-filters="sRGB">
<feFlood flood-opacity="0" result="BackgroundImageFix"/>
<feColorMatrix in="SourceAlpha" type="matrix" values="0 0 0 0 0 0 0 0 0 0 0 0 0 0 0 0 0 0 127 0" result="hardAlpha"/>
<feOffset dy="10"/>
<feGaussianBlur stdDeviation="18.3"/>
<feComposite in2="hardAlpha" operator="out"/>
<feColorMatrix type="matrix" values="0 0 0 0 0.923654 0 0 0 0 0.923654 0 0 0 0 0.923654 0 0 0 0.25 0"/>
<feBlend mode="normal" in2="BackgroundImageFix" result="effect1_dropShadow_712_3"/>
<feBlend mode="normal" in="SourceGraphic" in2="effect1_dropShadow_712_3" result="shape"/>
</filter>
</defs>
</svg>
