<svg width="52" height="36" viewBox="0 0 52 36" fill="none" xmlns="http://www.w3.org/2000/svg">
<path d="M30.8168 5.89908H3.66927C1.30862 5.89908 0.915176 7.86629 1.01354 8.8499V29.8007C1.01354 31.6892 2.78403 31.9647 3.66927 31.8663H5.14468C5.34141 29.9974 6.79714 26.2007 11.0463 25.9647C15.2955 25.7286 16.948 29.9974 17.243 32.1614H36.1283C36.1283 30.1942 37.2496 26.2007 41.7348 25.9647C46.2201 25.7286 47.7348 29.8007 47.9316 31.8663C50.0562 31.6302 50.3906 29.9974 50.2922 29.2106V21.8335C48.4037 20.6532 46.3578 18.3909 45.5709 17.4073C43.9185 11.9778 41.7348 10.0302 40.8496 9.73514H38.1939V5.89908C37.8004 5.50564 36.7775 4.71875 35.8332 4.71875C34.8889 4.71875 33.6693 5.50564 33.1775 5.89908C31.9969 6.60727 31.1118 6.19416 30.8168 5.89908Z" stroke="black" stroke-width="2"/>
<circle cx="11.3419" cy="32.1642" r="2.83607" stroke="black" stroke-width="2"/>
<circle cx="42.0294" cy="32.1642" r="2.83607" stroke="black" stroke-width="2"/>
<path d="M16.9479 13.8673L14.2921 11.8017L12.2266 15.0476L15.1774 16.8181L12.2266 18.8837L14.5872 22.1296L16.9479 20.3591V24.1952H21.079V20.3591L24.3249 22.1296L25.8003 18.8837L22.5544 17.1132L25.8003 14.7526L23.4397 11.8017L21.079 13.8673V10.0312H16.9479V13.8673Z" stroke="black" stroke-width="2"/>
<path d="M39.9651 12.1016H35.834V18.2983H43.211C42.975 15.9376 40.9487 13.1835 39.9651 12.1016Z" stroke="black" stroke-width="2"/>
<path d="M33.1771 3.83722L30.8164 1.47656" stroke="black" stroke-width="2"/>
<path d="M35.834 2.95082V0M38.7848 3.54098L40.5553 1.47541" stroke="black" stroke-width="2"/>
</svg>
